<svg width="28" height="28" viewBox="0 0 28 28" fill="none" xmlns="http://www.w3.org/2000/svg">
<circle cx="14" cy="14" r="14" fill="#C4C4C4"/>
<path d="M16.598 5H10.2718C7.36071 5 5 7.36071 5 10.2718V16.598C5 19.509 7.36071 21.8697 10.2718 21.8697H16.598C19.509 21.8697 21.8697 19.509 21.8697 16.598V10.2718C21.8697 7.36071 19.509 5 16.598 5ZM20.2882 16.598C20.2882 18.6329 18.6329 20.2882 16.598 20.2882H10.2718C8.23688 20.2882 6.58154 18.6329 6.58154 16.598V10.2718C6.58154 8.23688 8.23688 6.58154 10.2718 6.58154H16.598C18.6329 6.58154 20.2882 8.23688 20.2882 10.2718V16.598Z" fill="black"/>
<path d="M13.9015 9.68408C11.5724 9.68408 9.68408 11.5724 9.68408 13.9015C9.68408 16.2306 11.5724 18.119 13.9015 18.119C16.2306 18.119 18.119 16.2306 18.119 13.9015C18.119 11.5724 16.2306 9.68408 13.9015 9.68408ZM13.9015 16.5374C12.4486 16.5374 11.2656 15.3544 11.2656 13.9015C11.2656 12.4476 12.4486 11.2656 13.9015 11.2656C15.3544 11.2656 16.5374 12.4476 16.5374 13.9015C16.5374 15.3544 15.3544 16.5374 13.9015 16.5374Z" fill="black"/>
<path d="M18.4355 9.9301C18.7459 9.9301 18.9975 9.6785 18.9975 9.36813C18.9975 9.05776 18.7459 8.80615 18.4355 8.80615C18.1251 8.80615 17.8735 9.05776 17.8735 9.36813C17.8735 9.6785 18.1251 9.9301 18.4355 9.9301Z" fill="black"/>
</svg>
